<?xml version="1.0" encoding="utf-8"?>
<!-- Generator: Adobe Illustrator 27.0.1, SVG Export Plug-In . SVG Version: 6.00 Build 0)  -->
<svg version="1.1" id="Слой_1" xmlns="http://www.w3.org/2000/svg" xmlns:xlink="http://www.w3.org/1999/xlink" x="0px" y="0px"
	 viewBox="0 0 128 128" style="enable-background:new 0 0 128 128;" xml:space="preserve">
<style type="text/css">
	.st0{clip-path:url(#SVGID_00000150819131638700236370000009616554828865583498_);}
	.st1{fill:url(#SVGID_00000134939112849334832880000005144544235516523955_);}
	.st2{fill:url(#SVGID_00000145767505044073207820000003745018118307982490_);}
	.st3{fill:url(#SVGID_00000090279356342329306100000008087535204180097464_);}
	.st4{fill:url(#SVGID_00000012453509509438411790000017236195206885571489_);}
	.st5{fill:url(#SVGID_00000078044621731570160980000016654510378853074854_);}
	.st6{fill:url(#SVGID_00000134224669779640907090000016399142404486209443_);}
	.st7{fill:url(#SVGID_00000170270047228896563020000016741324834614009513_);}
	.st8{fill:#75FBFD;}
</style>
<g>
	<defs>
		<path id="SVGID_1_" d="M16,0h96c8.8,0,16,7.2,16,16v96c0,8.8-7.2,16-16,16H16c-8.8,0-16-7.2-16-16V16C0,7.2,7.2,0,16,0z"/>
	</defs>
	<clipPath id="SVGID_00000034779212525597913710000001109607540417075080_">
		<use xlink:href="#SVGID_1_"  style="overflow:visible;"/>
	</clipPath>
	<g style="clip-path:url(#SVGID_00000034779212525597913710000001109607540417075080_);">
		<path d="M16,0h96c8.8,0,16,7.2,16,16v96c0,8.8-7.2,16-16,16H16c-8.8,0-16-7.2-16-16V16C0,7.2,7.2,0,16,0z"/>
		
			<linearGradient id="SVGID_00000070090375050827799640000009558850948198375562_" gradientUnits="userSpaceOnUse" x1="251.2742" y1="-286.7433" x2="282.0574" y2="-242.81" gradientTransform="matrix(1 0 0 -1 -242 -202)">
			<stop  offset="0" style="stop-color:#1D1D1B"/>
			<stop  offset="0.1821" style="stop-color:#335554"/>
			<stop  offset="0.3934" style="stop-color:#4A9090"/>
			<stop  offset="0.588" style="stop-color:#5DBEBF"/>
			<stop  offset="0.759" style="stop-color:#6ADFE1"/>
			<stop  offset="0.9" style="stop-color:#72F4F6"/>
			<stop  offset="0.9935" style="stop-color:#75FBFD"/>
		</linearGradient>
		<path style="fill:url(#SVGID_00000070090375050827799640000009558850948198375562_);" d="M29.5,49.4c-1.2,0.3-2.4,0.8-3.6,1.5
			c-5.5,3.3-8.2,10-6.4,16.3c1.4,4.8,5.2,10.2,9.4,11.6c3.4,1.2,5.4,4.3,5.2,7.8c-0.1,5.3-5,9-10.1,7.4C15.3,91,7.8,82.3,4.6,72.7
			C0,58.6,6.5,42.9,19.8,36.2c1.9-0.9,3.7-1.6,5.6-2.1c5.1-1.4,10.2,2.6,10.1,7.8C35.3,45.5,32.9,48.5,29.5,49.4z"/>
		
			<linearGradient id="SVGID_00000044868780885296029790000017667198498908091019_" gradientUnits="userSpaceOnUse" x1="296.8179" y1="-323.7551" x2="272.7776" y2="-277.0158" gradientTransform="matrix(1 0 0 -1 -242 -202)">
			<stop  offset="0" style="stop-color:#1D1D1B"/>
			<stop  offset="0.1821" style="stop-color:#335554"/>
			<stop  offset="0.3934" style="stop-color:#4A9090"/>
			<stop  offset="0.588" style="stop-color:#5DBEBF"/>
			<stop  offset="0.759" style="stop-color:#6ADFE1"/>
			<stop  offset="0.9" style="stop-color:#72F4F6"/>
			<stop  offset="0.9935" style="stop-color:#75FBFD"/>
		</linearGradient>
		<path style="fill:url(#SVGID_00000044868780885296029790000017667198498908091019_);" d="M57.9,101.6c-0.9,0.9-2,1.6-3.1,2.3
			c-5.6,3-12.8,1.9-17.2-2.9c-3.4-3.7-4.5-8.5-3.5-12.9c0.8-3.5-0.7-7.1-3.8-8.9c-4.6-2.6-10.5-0.1-11.7,5.2
			c-2.1,9-0.1,18.9,6.6,26.5c9.7,11.3,26.6,13.8,39.1,5.7c1.7-1.1,3.3-2.3,4.7-3.7c3.8-3.7,3.1-10.1-1.6-12.6
			C64.3,98.6,60.5,99.2,57.9,101.6z"/>
		
			<linearGradient id="SVGID_00000109730172175842210950000005729585696359185549_" gradientUnits="userSpaceOnUse" x1="353.2196" y1="-295.9979" x2="301.0557" y2="-310.8594" gradientTransform="matrix(1 0 0 -1 -242 -202)">
			<stop  offset="0" style="stop-color:#1D1D1B"/>
			<stop  offset="0.1821" style="stop-color:#335554"/>
			<stop  offset="0.3934" style="stop-color:#4A9090"/>
			<stop  offset="0.588" style="stop-color:#5DBEBF"/>
			<stop  offset="0.759" style="stop-color:#6ADFE1"/>
			<stop  offset="0.9" style="stop-color:#72F4F6"/>
			<stop  offset="0.9935" style="stop-color:#75FBFD"/>
		</linearGradient>
		<path style="fill:url(#SVGID_00000109730172175842210950000005729585696359185549_);" d="M92.9,87.8c0.3,1.2,0.4,2.5,0.4,3.8
			c-0.2,6.4-4.8,12-11,13.5c-4.9,1.1-9.7-0.2-13-3.4c-2.6-2.6-6.6-3.2-9.7-1.4c-4.6,2.7-5.3,9.1-1.4,12.7c6.7,6.3,16.4,9.7,26.5,7.9
			c14.7-2.7,25.2-16.2,24.5-31c-0.1-2-0.4-4-0.8-5.9c-1.3-5.2-7.2-7.7-11.8-5C93.4,80.7,92,84.3,92.9,87.8z"/>
		
			<linearGradient id="SVGID_00000096044461903354120480000016524498684284692634_" gradientUnits="userSpaceOnUse" x1="352.7971" y1="-237.8199" x2="348.0459" y2="-296.1418" gradientTransform="matrix(1 0 0 -1 -242 -202)">
			<stop  offset="0" style="stop-color:#1D1D1B"/>
			<stop  offset="0.1821" style="stop-color:#335554"/>
			<stop  offset="0.3934" style="stop-color:#4A9090"/>
			<stop  offset="0.588" style="stop-color:#5DBEBF"/>
			<stop  offset="0.759" style="stop-color:#6ADFE1"/>
			<stop  offset="0.9" style="stop-color:#72F4F6"/>
			<stop  offset="0.9935" style="stop-color:#75FBFD"/>
		</linearGradient>
		<path style="fill:url(#SVGID_00000096044461903354120480000016524498684284692634_);" d="M99.3,50.6c1.2,0.4,2.4,1,3.4,1.7
			c5.4,3.6,7.7,10.5,5.6,16.6c-1.6,4.7-5.4,7.9-9.8,9.2c-3.4,1-6,3.9-6,7.5c-0.1,5.3,4.9,9.3,10,7.8c8.9-2.4,16.7-8.8,20.4-18.2
			c5.4-13.9-0.3-29.9-13.3-37.2c-1.8-1-3.6-1.8-5.5-2.4c-5.1-1.7-10.3,2-10.5,7.3C93.6,46.4,95.9,49.5,99.3,50.6z"/>
		
			<linearGradient id="SVGID_00000173119222049430668920000012215538292787387528_" gradientUnits="userSpaceOnUse" x1="301.5638" y1="-215.3094" x2="354.6404" y2="-240.0591" gradientTransform="matrix(1 0 0 -1 -242 -202)">
			<stop  offset="0" style="stop-color:#1D1D1B"/>
			<stop  offset="0.1821" style="stop-color:#335554"/>
			<stop  offset="0.3934" style="stop-color:#4A9090"/>
			<stop  offset="0.588" style="stop-color:#5DBEBF"/>
			<stop  offset="0.759" style="stop-color:#6ADFE1"/>
			<stop  offset="0.9" style="stop-color:#72F4F6"/>
			<stop  offset="0.9935" style="stop-color:#75FBFD"/>
		</linearGradient>
		<path style="fill:url(#SVGID_00000173119222049430668920000012215538292787387528_);" d="M70.2,26.8c0.9-0.9,2-1.6,3.2-2.2
			c5.7-2.9,12.8-1.6,17.1,3.2c3.3,3.8,4.3,8.6,3.3,13c-0.9,3.5,0.6,7.4,3.7,9.2c4.6,2.7,10.5,0.2,11.8-4.9c2.2-9,0.4-19.1-6.1-27
			c-9.5-11.6-26.3-14.3-39-6.5c-1.7,1.1-3.4,2.3-4.8,3.6c-3.9,3.6-3.3,10,1.4,12.7C63.8,29.6,67.6,29.1,70.2,26.8z"/>
		
			<linearGradient id="SVGID_00000008115453563479221000000012283349834746357895_" gradientUnits="userSpaceOnUse" x1="260.3751" y1="-231.723" x2="315.1207" y2="-226.9334" gradientTransform="matrix(1 0 0 -1 -242 -202)">
			<stop  offset="0" style="stop-color:#1D1D1B"/>
			<stop  offset="0.1821" style="stop-color:#335554"/>
			<stop  offset="0.3934" style="stop-color:#4A9090"/>
			<stop  offset="0.588" style="stop-color:#5DBEBF"/>
			<stop  offset="0.759" style="stop-color:#6ADFE1"/>
			<stop  offset="0.9" style="stop-color:#72F4F6"/>
			<stop  offset="0.9935" style="stop-color:#75FBFD"/>
		</linearGradient>
		<path style="fill:url(#SVGID_00000008115453563479221000000012283349834746357895_);" d="M35.3,39.8c-0.3-1.2-0.4-2.5-0.3-3.8
			c0.3-6.4,5.1-12,11.3-13.3c4.9-1,10,0.4,12.9,3.8c2.2,2.6,6.5,3,9.5,1.3c4.6-2.6,5.4-9,1.6-12.6c-6.7-6.4-16.2-9.9-26.2-8.3
			c-14.7,2.5-25.5,15.7-25,30.6c0.1,2,0.4,4,0.7,5.9c1.2,5.2,7.1,7.8,11.7,5.2C34.6,46.8,36.1,43.3,35.3,39.8z"/>
		
			<linearGradient id="SVGID_00000153678968022015346600000009918726682715692451_" gradientUnits="userSpaceOnUse" x1="257.9409" y1="-292.553" x2="262.944" y2="-235.16" gradientTransform="matrix(1 0 0 -1 -242 -202)">
			<stop  offset="0" style="stop-color:#1D1D1B"/>
			<stop  offset="0.1821" style="stop-color:#335554"/>
			<stop  offset="0.3934" style="stop-color:#4A9090"/>
			<stop  offset="0.588" style="stop-color:#5DBEBF"/>
			<stop  offset="0.759" style="stop-color:#6ADFE1"/>
			<stop  offset="0.9" style="stop-color:#72F4F6"/>
			<stop  offset="0.9935" style="stop-color:#75FBFD"/>
		</linearGradient>
		<path style="fill:url(#SVGID_00000153678968022015346600000009918726682715692451_);" d="M28.4,78.6c-4-1.7-7.6-6.8-8.8-11.3
			c-1.8-6.1,0.9-13,6.4-16.3c1.2-0.7,2.3-1.2,3.6-1.5c3.4-1,5.9-3.9,6-7.5c0.1-5.3-4.9-9.3-10.1-7.8c-1.9,0.6-3.8,1.2-5.6,2.1
			C6.4,42.8-0.1,58.5,4.6,72.7c2.4,7.3,7.2,13.9,13.2,18c0-2.1,0.3-4.2,0.8-6.3C19.6,79.9,24.2,77.4,28.4,78.6z"/>
		<path class="st8" d="M50,75.5c1.8,0,3-1.4,3-3c0-1.5-0.8-2.7-2.5-3.2l-15.4-5.7v-0.2l15.4-5.6c1.7-0.5,2.5-1.6,2.5-3.1
			c0-1.6-1.2-3-3-3c-0.9,0-1.5,0.2-2.4,0.5l-17.2,7.2C28,60.1,27,61.5,27,63.5c0,2,1.1,3.4,3.3,4.3l17.2,7.1
			C48.5,75.3,49.1,75.5,50,75.5z"/>
		<path class="st8" d="M58.6,85.6c1.7,0,2.7-0.8,3.2-2.5l10.6-36.7c0.1-0.4,0.2-0.8,0.2-1.2c0-1.8-1.2-3-3.1-3
			c-1.7,0-2.7,0.9-3.2,2.7L55.6,81.5c-0.1,0.4-0.2,0.8-0.2,1.3C55.4,84.4,56.6,85.6,58.6,85.6z"/>
		<path class="st8" d="M78,75.5c0.9,0,1.5-0.2,2.4-0.6l17.3-7.1c2.3-0.9,3.3-2.3,3.3-4.3c0-2-1.1-3.4-3.3-4.3l-17.2-7.1
			c-0.9-0.3-1.5-0.5-2.4-0.5c-1.8,0-3,1.4-3,3c0,1.6,0.8,2.6,2.5,3.1l15.4,5.7v0.2l-15.4,5.6c-1.7,0.6-2.5,1.7-2.5,3.2
			C75,74,76.2,75.5,78,75.5z"/>
	</g>
</g>
</svg>
